<?xml version="1.0" encoding="UTF-8" standalone="no"?>
<!DOCTYPE svg PUBLIC "-//W3C//DTD SVG 1.1//EN" "http://www.w3.org/Graphics/SVG/1.1/DTD/svg11.dtd">
<svg xmlns="http://www.w3.org/2000/svg" direction="ltr" width="58.6" height="65.6" viewBox="-180.2579635138586 590.7022137213651 221.86426369691452 248.53125" stroke-linecap="round" stroke-linejoin="round" style="background-color: transparent;"><defs/><g transform="matrix(1, 0, 0, 1, -145.0337, 622.7022)" opacity="1"><path d="M0,-7.851 T3.1324,-7.8122 11.8531,-7.7676 22.7974,-7.7743 33.0862,-7.8222 42.6224,-7.9026 51.5669,-7.9946 59.963,-8.0912 67.8101,-8.1899 75.3031,-8.2127 83.6343,-8.013 91.7958,-7.7428 99.4347,-7.5579 107.1242,-7.5095 114.7887,-7.6124 122.6031,-7.7162 130.3472,-7.8127 138.3682,-7.9027 148.5082,-7.9435 154.64,-7.9502 A9.3402,9.3402 0 0 1 154.64,10.7302 T148.5082,10.7235 138.3682,10.6827 130.3469,10.5926 122.6007,10.4955 114.7569,10.3835 106.9085,10.2165 98.9666,9.8653 91.0258,9.3582 82.9107,8.7895 75.0672,8.356 67.8101,8.1899 59.963,8.0912 51.5669,7.9946 42.6224,7.9026 33.0862,7.8222 22.7974,7.7743 11.8531,7.7676 3.1324,7.8122 0,7.851 A7.851,7.851 0 0 1 0,-7.851 Z" stroke-linecap="round" fill="#1d1d1d"/></g><g transform="matrix(1, 0, 0, 1, -148.258, 807.2335)" opacity="1"><path d="M0,-7.7573 T4.0469,-7.6107 11.5597,-7.42 20.9392,-7.3999 31.4753,-7.5171 40.6833,-7.7707 48.7287,-8.0582 55.8753,-8.3137 63.6527,-8.5632 71.2886,-8.762 79.5501,-9.0271 88.8731,-9.6616 97.8957,-10.4515 106.1785,-10.9982 113.9366,-11.3029 121.5263,-11.4286 129.2814,-11.4702 137.5607,-11.4652 145.2323,-11.0347 151.9085,-10.5119 155.1356,-10.3978 A9.3381,9.3381 0 0 1 154.9844,8.2778 T150.6143,8.1399 142.8189,7.602 135.4376,7.1592 127.3123,7.1007 119.5263,7.0444 112.491,6.966 104.9952,7.0965 96.5056,7.6211 87.1411,8.4017 78.5111,8.833 71.2886,8.762 63.6527,8.5632 55.8753,8.3137 48.7287,8.0582 40.6833,7.7707 31.4753,7.5171 20.9392,7.3999 11.5597,7.42 4.0469,7.6107 0,7.7573 A7.7573,7.7573 0 0 1 0,-7.7573 Z" stroke-linecap="round" fill="#1d1d1d"/></g><g transform="matrix(1, 0, 0, 1, -131.5646, 803.3974)" opacity="1"><path d="M-7.6486,-2.1175 T-6.7327,-5.2182 -3.5101,-13.8656 1.1132,-23.7795 5.6697,-32.1522 9.8116,-39.5777 13.9152,-46.8265 17.8277,-53.7005 21.2159,-59.8833 24.891,-67.0899 28.51,-74.2154 32.0127,-80.7802 35.8201,-87.4194 37.5685,-87.0755 35.32,-87.2093 31.3734,-94.7932 27.8679,-102.1012 24.7614,-108.8989 21.5788,-115.7498 18.1468,-122.5567 15.0484,-129.4423 12.3494,-136.2369 9.4682,-143.6116 6.741,-151.0253 4.4022,-158.6073 1.7208,-166.8961 0.2055,-170.9716 A9.2495,9.2495 0 0 1 17.3545,-177.9084 T19.0213,-173.9472 21.8461,-165.8789 24.2301,-158.0764 26.893,-150.6158 29.801,-143.0889 32.6172,-136.017 35.5932,-129.4207 38.7948,-122.8352 42.1306,-115.433 45.6388,-107.827 49.1356,-99.8611 52.808,-92.4471 54.3567,-85.9116 51.8114,-78.8094 47.406,-71.3446 43.3269,-64.289 39.7744,-57.9566 36.0915,-51.3508 32.2215,-44.9704 28.062,-38.4364 23.7937,-31.5456 19.5398,-24.3269 15.1107,-16.5521 11.1007,-8.3896 8.457,-1.0103 7.6486,2.1175 A7.9363,7.9363 0 0 1 -7.6486,-2.1175 Z" stroke-linecap="round" fill="#1d1d1d"/></g><g transform="matrix(1, 0, 0, 1, -58.1596, 714.5201)" opacity="1"><path d="M-7.1399,-3.0642 T-5.6152,-6.384 -1.3399,-15.5257 3.7448,-26.2922 8.2392,-35.5024 12.2336,-43.1803 16.2378,-50.5051 20.6035,-57.8651 25.193,-64.8197 30.1217,-71.6243 34.8091,-77.7869 39.4879,-84.9403 42.0139,-89.2287 A9.0164,9.0164 0 0 1 57.1661,-79.4513 T54.062,-74.5035 48.7013,-66.8151 44.0216,-61.2144 38.9883,-54.9239 34.346,-48.6609 30.0572,-42.2674 25.9082,-35.5534 21.8638,-28.4738 17.3505,-19.7331 12.4204,-9.3196 8.4957,-0.3279 7.1399,3.0642 A7.7696,7.7696 0 0 1 -7.1399,-3.0642 Z" stroke-linecap="round" fill="#1d1d1d"/></g><g transform="matrix(1, 0, 0, 1, -59.2762, 720.6322)" opacity="1"><path d="M5.9635,-4.8822 T8.3135,-1.8333 12.8015,4.0844 18.4271,11.9865 24.7811,21.4434 30.1906,29.9676 34.7183,37.2578 39.0923,44.556 43.2566,51.6576 46.8369,57.9032 51.3551,66.2236 54.0677,71.2916 A8.7121,8.7121 0 0 1 38.9923,80.0284 T35.9081,73.9458 31.1845,64.5188 27.6604,57.419 23.61,49.561 19.3216,41.7323 14.7292,33.8019 9.4006,25.1482 2.814,15.6962 -3.4387,7.7878 -5.9635,4.8822 A7.7071,7.7071 0 0 1 5.9635,-4.8822 Z" stroke-linecap="round" fill="#1d1d1d"/></g><g transform="matrix(1, 0, 0, 1, -145.0337, 622.7022)" opacity="1"><path d="M0,-7.851 T3.1324,-7.8122 11.8531,-7.7676 22.7974,-7.7743 33.0862,-7.8222 42.6224,-7.9026 51.5669,-7.9946 59.963,-8.0912 67.8101,-8.1899 75.3031,-8.2127 83.6343,-8.013 91.7958,-7.7428 99.4347,-7.5579 107.1242,-7.5095 114.7887,-7.6124 122.6031,-7.7162 130.3472,-7.8127 138.3682,-7.9027 148.5082,-7.9435 154.64,-7.9502 A9.3402,9.3402 0 0 1 154.64,10.7302 T148.5082,10.7235 138.3682,10.6827 130.3469,10.5926 122.6007,10.4955 114.7569,10.3835 106.9085,10.2165 98.9666,9.8653 91.0258,9.3582 82.9107,8.7895 75.0672,8.356 67.8101,8.1899 59.963,8.0912 51.5669,7.9946 42.6224,7.9026 33.0862,7.8222 22.7974,7.7743 11.8531,7.7676 3.1324,7.8122 0,7.851 A7.851,7.851 0 0 1 0,-7.851 Z" stroke-linecap="round" fill="#1d1d1d"/></g><g transform="matrix(1, 0, 0, 1, -148.258, 807.2335)" opacity="1"><path d="M0,-7.7573 T4.0469,-7.6107 11.5597,-7.42 20.9392,-7.3999 31.4753,-7.5171 40.6833,-7.7707 48.7287,-8.0582 55.8753,-8.3137 63.6527,-8.5632 71.2886,-8.762 79.5501,-9.0271 88.8731,-9.6616 97.8957,-10.4515 106.1785,-10.9982 113.9366,-11.3029 121.5263,-11.4286 129.2814,-11.4702 137.5607,-11.4652 145.2323,-11.0347 151.9085,-10.5119 155.1356,-10.3978 A9.3381,9.3381 0 0 1 154.9844,8.2778 T150.6143,8.1399 142.8189,7.602 135.4376,7.1592 127.3123,7.1007 119.5263,7.0444 112.491,6.966 104.9952,7.0965 96.5056,7.6211 87.1411,8.4017 78.5111,8.833 71.2886,8.762 63.6527,8.5632 55.8753,8.3137 48.7287,8.0582 40.6833,7.7707 31.4753,7.5171 20.9392,7.3999 11.5597,7.42 4.0469,7.6107 0,7.7573 A7.7573,7.7573 0 0 1 0,-7.7573 Z" stroke-linecap="round" fill="#1d1d1d"/></g><g transform="matrix(1, 0, 0, 1, -131.5646, 803.3974)" opacity="1"><path d="M-7.6486,-2.1175 T-6.7327,-5.2182 -3.5101,-13.8656 1.1132,-23.7795 5.6697,-32.1522 9.8116,-39.5777 13.9152,-46.8265 17.8277,-53.7005 21.2159,-59.8833 24.891,-67.0899 28.51,-74.2154 32.0127,-80.7802 35.8201,-87.4194 37.5685,-87.0755 35.32,-87.2093 31.3734,-94.7932 27.8679,-102.1012 24.7614,-108.8989 21.5788,-115.7498 18.1468,-122.5567 15.0484,-129.4423 12.3494,-136.2369 9.4682,-143.6116 6.741,-151.0253 4.4022,-158.6073 1.7208,-166.8961 0.2055,-170.9716 A9.2495,9.2495 0 0 1 17.3545,-177.9084 T19.0213,-173.9472 21.8461,-165.8789 24.2301,-158.0764 26.893,-150.6158 29.801,-143.0889 32.6172,-136.017 35.5932,-129.4207 38.7948,-122.8352 42.1306,-115.433 45.6388,-107.827 49.1356,-99.8611 52.808,-92.4471 54.3567,-85.9116 51.8114,-78.8094 47.406,-71.3446 43.3269,-64.289 39.7744,-57.9566 36.0915,-51.3508 32.2215,-44.9704 28.062,-38.4364 23.7937,-31.5456 19.5398,-24.3269 15.1107,-16.5521 11.1007,-8.3896 8.457,-1.0103 7.6486,2.1175 A7.9363,7.9363 0 0 1 -7.6486,-2.1175 Z" stroke-linecap="round" fill="#1d1d1d"/></g><g transform="matrix(1, 0, 0, 1, -58.1596, 714.5201)" opacity="1"><path d="M-7.1399,-3.0642 T-5.6152,-6.384 -1.3399,-15.5257 3.7448,-26.2922 8.2392,-35.5024 12.2336,-43.1803 16.2378,-50.5051 20.6035,-57.8651 25.193,-64.8197 30.1217,-71.6243 34.8091,-77.7869 39.4879,-84.9403 42.0139,-89.2287 A9.0164,9.0164 0 0 1 57.1661,-79.4513 T54.062,-74.5035 48.7013,-66.8151 44.0216,-61.2144 38.9883,-54.9239 34.346,-48.6609 30.0572,-42.2674 25.9082,-35.5534 21.8638,-28.4738 17.3505,-19.7331 12.4204,-9.3196 8.4957,-0.3279 7.1399,3.0642 A7.7696,7.7696 0 0 1 -7.1399,-3.0642 Z" stroke-linecap="round" fill="#1d1d1d"/></g><g transform="matrix(1, 0, 0, 1, -59.2762, 720.6322)" opacity="1"><path d="M5.9635,-4.8822 T8.3135,-1.8333 12.8015,4.0844 18.4271,11.9865 24.7811,21.4434 30.1906,29.9676 34.7183,37.2578 39.0923,44.556 43.2566,51.6576 46.8369,57.9032 51.3551,66.2236 54.0677,71.2916 A8.7121,8.7121 0 0 1 38.9923,80.0284 T35.9081,73.9458 31.1845,64.5188 27.6604,57.419 23.61,49.561 19.3216,41.7323 14.7292,33.8019 9.4006,25.1482 2.814,15.6962 -3.4387,7.7878 -5.9635,4.8822 A7.7071,7.7071 0 0 1 5.9635,-4.8822 Z" stroke-linecap="round" fill="#1d1d1d"/></g></svg>